<svg width="605" height="85" fill="none" xmlns="http://www.w3.org/2000/svg"><path d="M.72 1.693h48.267v14.2H16.653v18.96H46.08V49.04H16.653v19.893h32.92V83.12H.72V1.693zm75.946 61.88c0 2.72.36 4.694 1.054 5.934.693 1.24 1.813 1.866 3.373 1.866.933 0 1.84-.08 2.733-.24.894-.146 2-.493 3.32-1.04l1.627 11.867c-1.253.613-3.147 1.24-5.707 1.853-2.56.627-5.2.934-7.906.934-4.427 0-7.787-1.027-10.12-3.08-2.32-2.054-3.494-5.454-3.494-10.174v-69.8h15.12v61.88zM115.4 55.44l1.987 8.947h.573l1.627-9.187 9.893-30.24h16.28l-24.307 58.733h-9.187L87.026 24.96h17.561L115.4 55.44zm59.493-20.014c-3.933 0-6.853 1.187-8.733 3.547-1.894 2.374-3.027 5.534-3.414 9.48h21.52c.307-4.186-.333-7.4-1.906-9.653-1.587-2.24-4.08-3.373-7.467-3.373zM196.48 78.12c-2.334 1.853-5.494 3.426-9.48 4.706-4 1.28-8.24 1.92-12.747 1.92-9.373 0-16.24-2.733-20.587-8.2-4.333-5.466-6.506-12.973-6.506-22.506 0-10.24 2.44-17.907 7.32-23.027 4.893-5.12 11.76-7.68 20.586-7.68 2.947 0 5.827.387 8.614 1.16 2.786.787 5.266 2.054 7.44 3.84 2.173 1.787 3.92 4.187 5.24 7.214 1.32 3.026 1.973 6.786 1.973 11.28a49.27 49.27 0 0 1-.293 5.24 66.09 66.09 0 0 1-.867 5.813H162.4c.226 4.88 1.48 8.573 3.76 11.053 2.28 2.48 5.973 3.72 11.066 3.72 3.174 0 6.014-.48 8.52-1.453 2.52-.973 4.427-1.96 5.747-2.974l4.987 9.894zm36.92-42.694c-3.933 0-6.853 1.187-8.733 3.547-1.894 2.374-3.027 5.534-3.414 9.48h21.52c.307-4.186-.333-7.4-1.92-9.653-1.573-2.24-4.066-3.373-7.453-3.373zm21.587 42.694c-2.334 1.853-5.494 3.426-9.48 4.706-4 1.28-8.241 1.92-12.747 1.92-9.374 0-16.24-2.733-20.587-8.2-4.333-5.466-6.506-12.973-6.506-22.506 0-10.24 2.44-17.907 7.32-23.027 4.893-5.12 11.746-7.68 20.6-7.68a32.1 32.1 0 0 1 8.6 1.16c2.786.787 5.266 2.054 7.439 3.84 2.174 1.787 3.921 4.187 5.241 7.214 1.32 3.026 1.973 6.786 1.973 11.28a49.27 49.27 0 0 1-.294 5.24c-.186 1.853-.48 3.8-.866 5.813h-34.773c.226 4.88 1.48 8.573 3.76 11.053 2.28 2.48 5.973 3.72 11.066 3.72 3.174 0 6.014-.48 8.52-1.453 2.52-.973 4.427-1.96 5.747-2.974l4.987 9.894zm82-15.707c0-3.253-.974-5.906-2.92-7.96-1.934-2.053-4.36-3.88-7.267-5.466-2.907-1.6-6.067-3.094-9.48-4.48a51.889 51.889 0 0 1-9.48-5.067 26.56 26.56 0 0 1-7.267-7.32c-1.933-2.907-2.906-6.613-2.906-11.107 0-6.36 2.213-11.4 6.626-15.133C308.72 2.16 315 .307 323.146.307c4.72 0 9.027.346 12.907 1.04 3.88.706 6.894 1.6 9.067 2.68l-2.907 8.6c-1.787-.88-4.4-1.72-7.853-2.52-3.454-.8-7.347-1.2-11.68-1.2-5.12 0-8.96 1.146-11.52 3.44-2.56 2.28-3.84 4.973-3.84 8.08 0 3.026.973 5.546 2.906 7.56 1.947 2.013 4.36 3.826 7.267 5.413a143.068 143.068 0 0 0 9.48 4.707 57.54 57.54 0 0 1 9.48 5.413c2.907 2.053 5.334 4.507 7.267 7.387 1.947 2.866 2.92 6.426 2.92 10.693 0 3.493-.627 6.627-1.867 9.426-1.24 2.787-3.066 5.187-5.466 7.214-2.4 2.013-5.307 3.56-8.72 4.64-3.414 1.093-7.294 1.64-11.641 1.64-5.813 0-10.613-.453-14.413-1.347-3.8-.893-6.747-1.88-8.84-2.96l3.254-8.613c1.786.987 4.426 1.947 7.906 2.893 3.494.947 7.414 1.414 11.747 1.414 2.56 0 4.96-.254 7.213-.76 2.253-.494 4.187-1.307 5.813-2.44a12.605 12.605 0 0 0 3.894-4.24c.973-1.707 1.467-3.72 1.467-6.054zm16.4-37.453h9.066V13.453l9.307-2.68V24.96h15.813v8.147H371.76V65.32c0 4.04.507 6.88 1.507 8.547 1.013 1.68 2.72 2.506 5.12 2.506 2.013 0 3.72-.213 5.12-.64 1.4-.426 2.946-.986 4.653-1.693l2.093 7.107c-2.093 1-4.386 1.813-6.866 2.44-2.48.613-5.16.933-8.027.933-4.733 0-8.067-1.347-10-4.013-1.933-2.68-2.907-7.16-2.907-13.44v-33.96h-9.066V24.96zm58.133 0v33.147c0 3.026.187 5.68.533 7.973.347 2.28.947 4.187 1.8 5.693.854 1.52 2.014 2.667 3.494 3.44 1.466.774 3.333 1.16 5.586 1.16 2.08 0 3.947-.333 5.574-.986a14.781 14.781 0 0 0 4.36-2.734 19.663 19.663 0 0 0 3.373-4.013 23.967 23.967 0 0 0 2.387-4.827V24.96h9.306V66.6c0 2.8.094 5.68.294 8.667.186 2.986.52 5.6.986 7.853h-6.4l-2.32-9.187h-.586c-1.787 3.027-4.187 5.547-7.214 7.56-3.026 2.014-6.853 3.027-11.506 3.027-3.107 0-5.84-.373-8.2-1.107a12.527 12.527 0 0 1-5.934-3.893c-1.6-1.867-2.8-4.373-3.613-7.507-.813-3.146-1.213-7.12-1.213-11.92V24.96h9.293zm72.826 51.413c3.96 0 7.094-1.026 9.427-3.08 2.32-2.053 3.907-5.173 4.76-9.373V35.08c-1.386-1.08-2.986-1.853-4.76-2.32-1.786-.467-4.16-.707-7.106-.707-5.347 0-9.534 1.774-12.56 5.294-3.027 3.533-4.534 9.173-4.534 16.933 0 3.173.254 6.12.76 8.827.507 2.72 1.333 5.053 2.493 6.986 1.174 1.933 2.694 3.467 4.6 4.587 1.894 1.133 4.2 1.693 6.92 1.693zm23.494-13.266c0 3.96.04 7.546.12 10.76.08 3.226.427 6.386 1.04 9.48h-6.28l-2.32-8.254h-.467c-1.546 2.72-3.8 4.96-6.746 6.747-2.947 1.787-6.4 2.68-10.347 2.68-7.76 0-13.52-2.44-17.28-7.333-3.76-4.88-5.64-12.52-5.64-22.907 0-9.933 2.346-17.467 7.04-22.627 4.693-5.16 11.147-7.733 19.36-7.733 2.867 0 5.133.147 6.813.467 1.667.306 3.467.813 5.4 1.506v-24.2h9.307v61.414zm19.893-38.147h9.307v58.16h-9.307V24.96zm-1.986-17.68c0-1.787.613-3.307 1.813-4.587 1.2-1.28 2.733-1.92 4.587-1.92 1.866 0 3.453.64 4.773 1.92 1.32 1.28 1.973 2.8 1.973 4.587s-.653 3.253-1.973 4.427c-1.32 1.16-2.907 1.746-4.773 1.746-1.854 0-3.387-.586-4.587-1.746-1.2-1.174-1.813-2.64-1.813-4.427zm37.573 46.76a41 41 0 0 0 .867 8.493c.586 2.72 1.493 5.08 2.746 7.093a14.725 14.725 0 0 0 4.88 4.88c2.013 1.24 4.453 1.867 7.333 1.867 10.534.08 15.814-7.36 15.814-22.333 0-3.027-.294-5.893-.88-8.614-.574-2.706-1.494-5.066-2.734-7.093a14.324 14.324 0 0 0-4.879-4.826c-2.014-1.2-4.454-1.8-7.321-1.8-10.546-.08-15.826 7.373-15.826 22.333zm-9.653 0c0-9.84 2.186-17.387 6.573-22.627 4.373-5.226 10.68-7.853 18.906-7.853 4.334 0 8.12.72 11.334 2.16 3.213 1.44 5.88 3.493 7.973 6.16 2.094 2.68 3.64 5.893 4.654 9.653 1 3.76 1.506 7.934 1.506 12.507 0 9.853-2.186 17.387-6.573 22.627-4.387 5.226-10.68 7.853-18.894 7.853-4.346 0-8.133-.72-11.346-2.16-3.213-1.427-5.88-3.48-7.974-6.16-2.093-2.68-3.639-5.893-4.653-9.653-1-3.76-1.506-7.934-1.506-12.507z" fill="#fff"/></svg>