<svg width="605" height="305" viewBox="0 0 605 305" fill="none" xmlns="http://www.w3.org/2000/svg">
<path d="M0.719971 221.693H48.9866V235.893H16.6533V254.853H46.0799V269.04H16.6533V288.933H49.5734V303.12H0.719971V221.693Z" fill="white"/>
<path d="M76.6664 283.573C76.6664 286.293 77.0265 288.267 77.7198 289.507C78.4132 290.747 79.533 291.373 81.093 291.373C82.0263 291.373 82.933 291.293 83.8263 291.133C84.7197 290.987 85.8264 290.64 87.1464 290.093L88.7732 301.96C87.5199 302.573 85.6264 303.2 83.0664 303.813C80.5064 304.44 77.8663 304.747 75.1597 304.747C70.733 304.747 67.3732 303.72 65.0399 301.667C62.7199 299.613 61.5464 296.213 61.5464 291.493V221.693H76.6664V283.573Z" fill="white"/>
<path d="M115.4 275.44L117.387 284.387H117.96L119.587 275.2L129.48 244.96H145.76L121.453 303.693H112.266L87.0264 244.96H104.587L115.4 275.44Z" fill="white"/>
<path d="M174.893 255.427C170.96 255.427 168.04 256.613 166.16 258.973C164.266 261.347 163.133 264.507 162.746 268.453H184.266C184.573 264.267 183.933 261.053 182.36 258.8C180.773 256.56 178.28 255.427 174.893 255.427ZM196.48 298.12C194.146 299.973 190.986 301.547 187 302.827C183 304.107 178.76 304.747 174.253 304.747C164.88 304.747 158.013 302.013 153.666 296.547C149.333 291.08 147.16 283.573 147.16 274.04C147.16 263.8 149.6 256.133 154.48 251.013C159.373 245.893 166.24 243.333 175.066 243.333C178.013 243.333 180.893 243.72 183.68 244.493C186.466 245.28 188.946 246.547 191.12 248.333C193.293 250.12 195.04 252.52 196.36 255.547C197.68 258.573 198.333 262.333 198.333 266.827C198.333 268.453 198.24 270.2 198.04 272.067C197.853 273.92 197.56 275.867 197.173 277.88H162.4C162.626 282.76 163.88 286.453 166.16 288.933C168.44 291.413 172.133 292.653 177.226 292.653C180.4 292.653 183.24 292.173 185.746 291.2C188.266 290.227 190.173 289.24 191.493 288.227L196.48 298.12Z" fill="white"/>
<path d="M233.4 255.427C229.467 255.427 226.547 256.613 224.667 258.973C222.773 261.347 221.64 264.507 221.253 268.453H242.773C243.08 264.267 242.44 261.053 240.853 258.8C239.28 256.56 236.787 255.427 233.4 255.427ZM254.987 298.12C252.653 299.973 249.493 301.547 245.507 302.827C241.507 304.107 237.266 304.747 232.76 304.747C223.386 304.747 216.52 302.013 212.173 296.547C207.84 291.08 205.667 283.573 205.667 274.04C205.667 263.8 208.107 256.133 212.987 251.013C217.88 245.893 224.733 243.333 233.587 243.333C236.52 243.333 239.4 243.72 242.187 244.493C244.973 245.28 247.453 246.547 249.626 248.333C251.8 250.12 253.547 252.52 254.867 255.547C256.187 258.573 256.84 262.333 256.84 266.827C256.84 268.453 256.746 270.2 256.546 272.067C256.36 273.92 256.066 275.867 255.68 277.88H220.907C221.133 282.76 222.387 286.453 224.667 288.933C226.947 291.413 230.64 292.653 235.733 292.653C238.907 292.653 241.747 292.173 244.253 291.2C246.773 290.227 248.68 289.24 250 288.227L254.987 298.12Z" fill="white"/>
<path d="M336.987 282.413C336.987 279.16 336.013 276.507 334.067 274.453C332.133 272.4 329.707 270.573 326.8 268.987C323.893 267.387 320.733 265.893 317.32 264.507C313.907 263.107 310.747 261.413 307.84 259.44C304.933 257.467 302.507 255.027 300.573 252.12C298.64 249.213 297.667 245.507 297.667 241.013C297.667 234.653 299.88 229.613 304.293 225.88C308.72 222.16 315 220.307 323.146 220.307C327.866 220.307 332.173 220.653 336.053 221.347C339.933 222.053 342.947 222.947 345.12 224.027L342.213 232.627C340.426 231.747 337.813 230.907 334.36 230.107C330.906 229.307 327.013 228.907 322.68 228.907C317.56 228.907 313.72 230.053 311.16 232.347C308.6 234.627 307.32 237.32 307.32 240.427C307.32 243.453 308.293 245.973 310.226 247.987C312.173 250 314.586 251.813 317.493 253.4C320.4 254.987 323.56 256.56 326.973 258.107C330.387 259.653 333.547 261.467 336.453 263.52C339.36 265.573 341.787 268.027 343.72 270.907C345.667 273.773 346.64 277.333 346.64 281.6C346.64 285.093 346.013 288.227 344.773 291.027C343.533 293.813 341.707 296.213 339.307 298.24C336.907 300.253 334 301.8 330.587 302.88C327.173 303.973 323.293 304.52 318.946 304.52C313.133 304.52 308.333 304.067 304.533 303.173C300.733 302.28 297.786 301.293 295.693 300.213L298.947 291.6C300.733 292.587 303.373 293.547 306.853 294.493C310.347 295.44 314.267 295.907 318.6 295.907C321.16 295.907 323.56 295.653 325.813 295.147C328.066 294.653 330 293.84 331.626 292.707C333.253 291.587 334.56 290.173 335.52 288.467C336.493 286.76 336.987 284.747 336.987 282.413Z" fill="white"/>
<path d="M353.387 244.96H362.453V233.453L371.76 230.773V244.96H387.573V253.107H371.76V285.32C371.76 289.36 372.267 292.2 373.267 293.867C374.28 295.547 375.987 296.373 378.387 296.373C380.4 296.373 382.107 296.16 383.507 295.733C384.907 295.307 386.453 294.747 388.16 294.04L390.253 301.147C388.16 302.147 385.867 302.96 383.387 303.587C380.907 304.2 378.227 304.52 375.36 304.52C370.627 304.52 367.293 303.173 365.36 300.507C363.427 297.827 362.453 293.347 362.453 287.067V253.107H353.387V244.96Z" fill="white"/>
<path d="M411.52 244.96V278.107C411.52 281.133 411.707 283.787 412.053 286.08C412.4 288.36 413 290.267 413.853 291.773C414.707 293.293 415.867 294.44 417.347 295.213C418.813 295.987 420.68 296.373 422.933 296.373C425.013 296.373 426.88 296.04 428.507 295.387C430.133 294.72 431.587 293.813 432.867 292.653C434.147 291.493 435.28 290.147 436.24 288.64C437.213 287.12 438.013 285.52 438.627 283.813V244.96H447.933V286.6C447.933 289.4 448.027 292.28 448.227 295.267C448.413 298.253 448.747 300.867 449.213 303.12H442.813L440.493 293.933H439.907C438.12 296.96 435.72 299.48 432.693 301.493C429.667 303.507 425.84 304.52 421.187 304.52C418.08 304.52 415.347 304.147 412.987 303.413C410.613 302.68 408.64 301.373 407.053 299.52C405.453 297.653 404.253 295.147 403.44 292.013C402.627 288.867 402.227 284.893 402.227 280.093V244.96H411.52Z" fill="white"/>
<path d="M484.346 296.373C488.306 296.373 491.44 295.347 493.773 293.293C496.093 291.24 497.68 288.12 498.533 283.92V255.08C497.147 254 495.547 253.227 493.773 252.76C491.987 252.293 489.613 252.053 486.667 252.053C481.32 252.053 477.133 253.827 474.107 257.347C471.08 260.88 469.573 266.52 469.573 274.28C469.573 277.453 469.827 280.4 470.333 283.107C470.84 285.827 471.666 288.16 472.826 290.093C474 292.027 475.52 293.56 477.426 294.68C479.32 295.813 481.626 296.373 484.346 296.373ZM507.84 283.107C507.84 287.067 507.88 290.653 507.96 293.867C508.04 297.093 508.387 300.253 509 303.347H502.72L500.4 295.093H499.933C498.387 297.813 496.133 300.053 493.187 301.84C490.24 303.627 486.787 304.52 482.84 304.52C475.08 304.52 469.32 302.08 465.56 297.187C461.8 292.307 459.92 284.667 459.92 274.28C459.92 264.347 462.266 256.813 466.96 251.653C471.653 246.493 478.107 243.92 486.32 243.92C489.187 243.92 491.453 244.067 493.133 244.387C494.8 244.693 496.6 245.2 498.533 245.893V221.693H507.84V283.107Z" fill="white"/>
<path d="M527.733 244.96H537.04V303.12H527.733V244.96ZM525.747 227.28C525.747 225.493 526.36 223.973 527.56 222.693C528.76 221.413 530.293 220.774 532.147 220.774C534.013 220.774 535.6 221.413 536.92 222.693C538.24 223.973 538.893 225.493 538.893 227.28C538.893 229.067 538.24 230.534 536.92 231.707C535.6 232.867 534.013 233.453 532.147 233.453C530.293 233.453 528.76 232.867 527.56 231.707C526.36 230.534 525.747 229.067 525.747 227.28Z" fill="white"/>
<path d="M563.32 274.04C563.32 276.987 563.613 279.813 564.187 282.533C564.773 285.253 565.68 287.613 566.933 289.627C568.173 291.64 569.8 293.267 571.813 294.507C573.826 295.747 576.266 296.373 579.146 296.373C589.68 296.453 594.96 289.013 594.96 274.04C594.96 271.013 594.666 268.147 594.08 265.427C593.506 262.72 592.586 260.36 591.346 258.333C590.106 256.32 588.48 254.72 586.467 253.507C584.453 252.307 582.013 251.707 579.146 251.707C568.6 251.627 563.32 259.08 563.32 274.04ZM553.667 274.04C553.667 264.2 555.853 256.653 560.24 251.413C564.613 246.187 570.92 243.56 579.146 243.56C583.48 243.56 587.266 244.28 590.48 245.72C593.693 247.16 596.36 249.213 598.453 251.88C600.547 254.56 602.093 257.773 603.107 261.533C604.107 265.293 604.613 269.467 604.613 274.04C604.613 283.893 602.427 291.427 598.04 296.667C593.653 301.893 587.36 304.52 579.146 304.52C574.8 304.52 571.013 303.8 567.8 302.36C564.587 300.933 561.92 298.88 559.826 296.2C557.733 293.52 556.187 290.307 555.173 286.547C554.173 282.787 553.667 278.613 553.667 274.04Z" fill="white"/>
<path d="M385.387 23.4802L302.667 0.586422L219.947 23.4802L302.667 46.3599L385.387 23.4802Z" fill="#FAD508"/>
<path d="M298.146 60.2932V82.04L216.573 58.1197V36.3864L298.146 60.2932Z" fill="#FAD508"/>
<path d="M298.146 104.387V126.12L216.573 102.227V80.4803L298.146 104.387Z" fill="#FAD508"/>
<path d="M329.12 75.5998V97.9597L368.346 86.4529L388.76 80.48V146.32L368.346 152.307L329.12 163.8L307.187 170.213L302.666 171.546L298.146 170.213L216.573 146.32V124.586L298.146 148.493L302.666 149.813L307.187 148.493L329.12 142.053L368.346 130.56V108.2L329.12 119.693L307.187 126.12V60.293L329.12 53.8529L368.346 42.3597L388.76 36.3862V58.1196L368.346 64.1065L329.12 75.5998Z" fill="#FAD508"/>
</svg>
