<svg viewBox="0 0 100 100" fill="none" xmlns="http://www.w3.org/2000/svg"><path d="M98.046 13.295L50 0 1.955 13.295 50 26.587l48.046-13.292zM47.378 34.678v12.628L0 33.418V20.789l47.378 13.889zM47.378 60.292V72.91L0 59.032V46.403l47.378 13.889z" fill="#FAD508"/><path d="M65.363 43.567v12.988l22.787-6.679L100 46.403v38.243l-11.85 3.473-22.787 6.678-12.741 3.728-2.622.768-2.622-.768L0 84.646V72.02l47.378 13.886 2.622.768 2.622-.768 12.74-3.737L88.15 75.49V62.505l-22.787 6.678-12.741 3.727V34.678l12.74-3.737 22.788-6.68L100 20.79v12.629L88.15 36.89l-22.787 6.676z" fill="#FAD508"/></svg>
