<svg xmlns="http://www.w3.org/2000/svg" xml:space="preserve" width="260" height="260">
  <style>
    path { fill: #000000; }
    @media (prefers-color-scheme: dark) {
      path { fill: #ffffff; }
    }
  </style>
  <g><path d="m665.383 1213.278-7.828 19.39h-17.21l131.517-325.743 142.795 345.685h261.405c.423-.436.969-.646 1.616-.646h26.166c8.181 0 16.368-.437 24.555-1.293 9.751-.576 19.451-1.724 29.11-3.348C1188.712 1326.158 1087.534 1376 974.685 1376c-128.348 0-241.628-64.443-309.302-162.722" style="stroke:none" transform="matrix(.3247 0 0 -.3247 -190.866 460.081)"/></g>
  <g><path d="M1361.181 1173.782c9.691-23.261 14.751-47.605 15.187-73.016.421-23.262-3.557-45.662-11.954-67.198-8.401-21.547-22.295-39.417-41.677-53.626-16.374-11.631-34.144-19.288-53.308-22.942-19.172-3.662-38.666-5.929-58.476-6.785H1179.94l-118.245.647V788.679h-97.567v297.667h97.567v-53.424h118.888c23.686 0 44.151 4.628 61.386 13.893 17.225 9.259 25.844 27.239 25.844 53.951.861 29.727-8.296 48.563-27.461 56.54-19.171 7.962-41.03 11.951-65.584 11.951v.646H984.13L824.846 788.679H724.045l-119.381 274.73c-3.44-20.395-5.278-41.333-5.278-62.707 0-207.272 168.027-375.298 375.299-375.298 193.462 0 352.711 146.388 373.076 334.435.078.055.159.105.237.16 19.382 14.209 33.275 32.079 41.677 53.627 8.398 21.536 12.375 43.936 11.953 67.197-.436 25.411-5.495 49.755-15.186 73.017-9.546 22.913-25.503 40.99-47.794 54.293 9.544-9.917 17.107-21.328 22.533-34.351" style="stroke:none" transform="matrix(.31446 0 0 -.31446 -183.866 445.945)"/></g>
</svg>
