<svg clip-rule="evenodd" fill-rule="evenodd" stroke-linejoin="round" stroke-miterlimit="1.41421" viewBox="0 0 260 260" xmlns="http://www.w3.org/2000/svg"><g fill="#fff" fill-rule="nonzero"><path d="m665.383 1213.28-7.828 19.39h-17.21l131.517-325.745 142.795 345.685h261.403c.43-.44.97-.65 1.62-.65h26.16c8.19 0 16.37-.43 24.56-1.29 9.75-.57 19.45-1.72 29.11-3.35-68.8 78.84-169.98 128.68-282.825 128.68-128.348 0-241.628-64.44-309.302-162.72" transform="matrix(.32470052158 0 0 -.32470052158 -190.8661895 460.08083313)"/><path d="m1361.18 1173.78c9.69-23.26 14.75-47.6 15.19-73.01.42-23.27-3.56-45.67-11.96-67.2-8.4-21.55-22.29-39.419-41.67-53.628-16.38-11.631-34.15-19.288-53.31-22.942-19.17-3.662-38.67-5.929-58.48-6.785h-15.5-15.51l-118.25.647v-162.183h-97.562v297.671h97.562v-53.43h118.89c23.69 0 44.15 4.63 61.39 13.9 17.22 9.25 25.84 27.23 25.84 53.95.86 29.72-8.29 48.56-27.46 56.54-19.17 7.96-41.03 11.95-65.58 11.95v.64h-87.42-25.66-77.56l-159.284-381.221h-100.801l-119.381 274.731c-3.44-20.4-5.278-41.33-5.278-62.71 0-207.27 168.027-375.296 375.299-375.296 193.465 0 352.715 146.388 373.075 334.435.08.055.16.105.24.16 19.38 14.209 33.27 32.079 41.67 53.631 8.4 21.53 12.38 43.93 11.96 67.19-.44 25.41-5.5 49.76-15.19 73.02-9.54 22.91-25.5 40.99-47.79 54.29 9.54-9.91 17.11-21.32 22.53-34.35" transform="matrix(.31446188051 0 0 -.31446188051 -183.866207 445.94353514)"/></g></svg>