<?xml version="1.0" encoding="UTF-8" standalone="no"?>
<!-- Created with Inkscape (http://www.inkscape.org/) -->

<svg
   xmlns:dc="http://purl.org/dc/elements/1.1/"
   xmlns:cc="http://creativecommons.org/ns#"
   xmlns:rdf="http://www.w3.org/1999/02/22-rdf-syntax-ns#"
   xmlns:svg="http://www.w3.org/2000/svg"
   xmlns="http://www.w3.org/2000/svg"
   xmlns:sodipodi="http://sodipodi.sourceforge.net/DTD/sodipodi-0.dtd"
   xmlns:inkscape="http://www.inkscape.org/namespaces/inkscape"
   version="1.1"
   id="svg10"
   xml:space="preserve"
   width="260"
   height="260"
   viewBox="0 0 259.99999 260"
   sodipodi:docname="Black Logo.svg"
   inkscape:export-filename="C:\Users\Vinh\Pictures\logo\Black - White Background.png"
   inkscape:export-xdpi="96"
   inkscape:export-ydpi="96"
   inkscape:version="0.92.3 (2405546, 2018-03-11)"><metadata
     id="metadata16"><rdf:RDF><cc:Work
         rdf:about=""><dc:format>image/svg+xml</dc:format><dc:type
           rdf:resource="http://purl.org/dc/dcmitype/StillImage" /><dc:title></dc:title></cc:Work></rdf:RDF></metadata><defs
     id="defs14" /><sodipodi:namedview
     pagecolor="#ffffff"
     bordercolor="#666666"
     borderopacity="1"
     objecttolerance="10"
     gridtolerance="10"
     guidetolerance="10"
     inkscape:pageopacity="1"
     inkscape:pageshadow="2"
     inkscape:window-width="1920"
     inkscape:window-height="1027"
     id="namedview12"
     showgrid="false"
     inkscape:pagecheckerboard="false"
     units="px"
     width="260in"
     inkscape:zoom="2.53"
     inkscape:cx="118.36472"
     inkscape:cy="137.50723"
     inkscape:window-x="-8"
     inkscape:window-y="-8"
     inkscape:window-maximized="1"
     inkscape:current-layer="g18" /><g
     id="g18"
     inkscape:groupmode="layer"
     inkscape:label="1"
     transform="matrix(1.3333333,0,0,-1.3333333,0,260)"><g
       id="g20"
       transform="matrix(0.24352632,0,0,0.24352632,-143.14959,-150.0609)"><g
         id="g22"><g
           id="g28"
           style="fill:#000000"><g
             id="g30"
             style="fill:#000000"><path
               d="m 665.383,1213.278 -7.828,19.39 h -17.21 L 771.862,906.925 914.657,1252.61 h 49.471 54.559 157.375 c 0.423,-0.436 0.969,-0.646 1.616,-0.646 v 0 h 1.616 24.55 c 8.181,0 16.368,-0.437 24.555,-1.293 v 0 c 9.751,-0.576 19.451,-1.724 29.11,-3.348 v 0 C 1188.712,1326.158 1087.534,1376 974.685,1376 v 0 c -128.348,0 -241.628,-64.443 -309.302,-162.722"
               style="fill:#000000;stroke:none"
               id="path40"
               inkscape:connector-curvature="0" /></g></g></g></g><g
       id="g42"
       style="fill:#000000"
       transform="matrix(0.2358471,0,0,0.2358471,-137.89984,-139.4584)"><g
         id="g44"
         style="fill:#000000"><g
           id="g50"
           style="fill:#000000"><g
             id="g52"
             style="fill:#000000"><path
               d="m 1361.181,1173.782 c 9.691,-23.261 14.751,-47.605 15.187,-73.016 v 0 c 0.421,-23.262 -3.557,-45.662 -11.954,-67.198 v 0 c -8.401,-21.547 -22.295,-39.417 -41.677,-53.626 v 0 C 1306.363,968.311 1288.593,960.654 1269.429,957 v 0 c -19.172,-3.662 -38.666,-5.929 -58.476,-6.785 v 0 h -15.505 -15.508 l -118.245,0.647 V 788.679 h -97.567 v 297.667 h 97.567 v -53.424 h 118.888 c 23.686,0 44.151,4.628 61.386,13.893 v 0 c 17.225,9.259 25.844,27.239 25.844,53.951 v 0 c 0.861,29.727 -8.296,48.563 -27.461,56.54 v 0 c -19.171,7.962 -41.03,11.951 -65.584,11.951 v 0 0.646 h -87.416 -25.657 -77.565 L 824.846,788.679 H 724.045 l -119.381,274.73 c -3.44,-20.395 -5.278,-41.333 -5.278,-62.707 v 0 c 0,-207.272 168.027,-375.298 375.299,-375.298 v 0 c 193.462,0 352.711,146.388 373.076,334.435 v 0 c 0.078,0.055 0.159,0.105 0.237,0.16 v 0 c 19.382,14.209 33.275,32.079 41.677,53.627 v 0 c 8.398,21.536 12.375,43.936 11.953,67.197 v 0 c -0.436,25.411 -5.495,49.755 -15.186,73.017 v 0 c -9.546,22.913 -25.503,40.99 -47.794,54.293 v 0 c 9.544,-9.917 17.107,-21.328 22.533,-34.351"
               style="fill:#000000;stroke:none"
               id="path62"
               inkscape:connector-curvature="0" /></g></g></g></g></g></svg>