<svg viewBox="0 0 799 143" fill="none" xmlns="http://www.w3.org/2000/svg"><path d="M194.823 27.76h48.27v14.187h-32.334v18.96h29.426v14.2h-29.426v19.88h32.916v14.2h-48.852V27.76zM270.775 89.64c0 2.72.348 4.693 1.046 5.933.698 1.24 1.82 1.867 3.372 1.867.931 0 1.842-.08 2.735-.24.891-.147 1.995-.507 3.315-1.04l1.628 11.853c-1.243.627-3.142 1.24-5.7 1.867a33.167 33.167 0 01-7.91.933c-4.42 0-7.792-1.027-10.118-3.08-2.327-2.053-3.49-5.453-3.49-10.187V27.76h15.122v61.88zM309.505 81.493l1.978 8.96h.581l1.629-9.187 9.886-30.24h16.284l-24.308 58.734h-9.19l-25.24-58.734h17.563l10.817 30.467zM368.993 61.493c-3.936 0-6.846 1.187-8.736 3.547-1.89 2.373-3.026 5.533-3.412 9.48h21.519c.308-4.187-.327-7.4-1.909-9.654-1.58-2.253-4.068-3.373-7.462-3.373zm21.583 42.693c-2.325 1.854-5.487 3.427-9.479 4.707-3.994 1.28-8.24 1.92-12.737 1.92-9.383 0-16.245-2.733-20.585-8.2-4.344-5.467-6.515-12.973-6.515-22.507 0-10.24 2.443-17.92 7.327-23.026 4.885-5.12 11.748-7.68 20.588-7.68 2.945 0 5.816.386 8.606 1.16 2.792.773 5.275 2.053 7.444 3.84 2.171 1.786 3.916 4.186 5.235 7.213 1.317 3.027 1.979 6.787 1.979 11.28 0 1.627-.1 3.373-.292 5.24a69.685 69.685 0 01-.87 5.813h-34.78c.23 4.88 1.486 8.56 3.767 11.04 2.279 2.494 5.971 3.734 11.069 3.734 3.168 0 6.008-.494 8.522-1.454 2.51-.973 4.422-1.96 5.737-2.973l4.984 9.893zM427.499 61.493c-3.934 0-6.846 1.187-8.736 3.547-1.891 2.373-3.026 5.533-3.411 9.48h21.517c.31-4.187-.328-7.4-1.908-9.654-1.581-2.253-4.069-3.373-7.462-3.373zm21.585 42.693c-2.328 1.854-5.488 3.427-9.481 4.707-3.995 1.28-8.242 1.92-12.736 1.92-9.384 0-16.246-2.733-20.588-8.2-4.344-5.467-6.512-12.973-6.512-22.507 0-10.24 2.441-17.92 7.326-23.026 4.886-5.12 11.748-7.68 20.588-7.68 2.947 0 5.816.386 8.607 1.16 2.792.773 5.272 2.053 7.444 3.84 2.171 1.786 3.913 4.186 5.235 7.213 1.317 3.027 1.976 6.787 1.976 11.28 0 1.627-.098 3.373-.29 5.24a69.668 69.668 0 01-.869 5.813h-34.781c.23 4.88 1.486 8.56 3.768 11.04 2.278 2.494 5.969 3.734 11.069 3.734 3.168 0 6.009-.494 8.52-1.454 2.512-.973 4.424-1.96 5.737-2.973l4.987 9.893zM531.083 88.48c0-3.253-.971-5.906-2.908-7.973-1.94-2.053-4.363-3.867-7.271-5.467a92.412 92.412 0 00-9.48-4.466 51.945 51.945 0 01-9.479-5.067 26.643 26.643 0 01-7.269-7.333c-1.939-2.907-2.908-6.6-2.908-11.107 0-6.347 2.209-11.4 6.631-15.12 4.418-3.72 10.7-5.573 18.842-5.573 4.728 0 9.032.347 12.91 1.04 3.877.693 6.901 1.586 9.073 2.68l-2.909 8.6c-1.784-.88-4.4-1.72-7.85-2.52-3.452-.8-7.348-1.2-11.689-1.2-5.119 0-8.957 1.147-11.516 3.44-2.56 2.28-3.839 4.973-3.839 8.08 0 3.013.97 5.546 2.91 7.56 1.936 2.013 4.361 3.813 7.268 5.4 2.909 1.6 6.068 3.16 9.48 4.72 3.41 1.546 6.572 3.346 9.48 5.4 2.908 2.066 5.329 4.52 7.269 7.386 1.937 2.88 2.908 6.44 2.908 10.707 0 3.493-.621 6.627-1.861 9.413-1.242 2.8-3.066 5.2-5.466 7.214-2.405 2.026-5.313 3.573-8.724 4.653-3.414 1.093-7.289 1.627-11.632 1.627-5.816 0-10.624-.44-14.422-1.334-3.8-.893-6.747-1.88-8.84-2.96l3.256-8.613c1.784.987 4.421 1.947 7.909 2.893 3.489.947 7.405 1.414 11.748 1.414 2.559 0 4.963-.254 7.213-.76 2.247-.507 4.186-1.32 5.815-2.44a12.714 12.714 0 003.896-4.24c.968-1.707 1.455-3.734 1.455-6.054zM547.481 51.027h9.074v-11.52l9.305-2.667v14.187h15.817v8.147H565.86v32.213c0 4.027.501 6.88 1.511 8.547 1.006 1.666 2.713 2.506 5.118 2.506 2.016 0 3.722-.213 5.118-.64a51.652 51.652 0 004.652-1.693l2.094 7.093c-2.094 1.014-4.381 1.827-6.864 2.454-2.481.613-5.156.92-8.024.92-4.73 0-8.066-1.334-10.004-4.014-1.938-2.666-2.906-7.146-2.906-13.426v-33.96h-9.074v-8.147zM605.628 51.027v33.147c0 3.026.175 5.68.523 7.973.349 2.28.949 4.187 1.804 5.693.852 1.52 2.016 2.654 3.489 3.44 1.473.774 3.333 1.16 5.584 1.16 2.092 0 3.953-.333 5.581-.986a14.74 14.74 0 004.363-2.734 20.396 20.396 0 003.373-4.013 24.606 24.606 0 002.384-4.827V51.027h9.304v41.64c0 2.787.098 5.68.292 8.667.194 2.986.524 5.6.988 7.853h-6.396L634.591 100h-.582c-1.785 3.014-4.188 5.534-7.212 7.56-3.024 2.014-6.862 3.014-11.514 3.014-3.103 0-5.836-.36-8.2-1.094-2.367-.746-4.343-2.04-5.932-3.906-1.591-1.854-2.791-4.36-3.607-7.494-.813-3.146-1.221-7.12-1.221-11.933v-35.12h9.305zM678.448 102.44c3.955 0 7.095-1.026 9.421-3.08 2.326-2.053 3.915-5.186 4.77-9.373v-28.84a13.177 13.177 0 00-4.77-2.333c-1.785-.454-4.149-.694-7.096-.694-5.35 0-9.536 1.76-12.561 5.294-3.024 3.533-4.536 9.173-4.536 16.92 0 3.186.251 6.133.756 8.84.503 2.72 1.337 5.04 2.5 6.986 1.164 1.934 2.693 3.467 4.595 4.587 1.898 1.133 4.205 1.693 6.921 1.693zm23.495-13.266c0 3.96.038 7.546.117 10.76a54.426 54.426 0 001.047 9.48h-6.282l-2.326-8.254h-.466c-1.552 2.707-3.8 4.96-6.746 6.747-2.947 1.773-6.396 2.667-10.352 2.667-7.755 0-13.512-2.44-17.272-7.32-3.762-4.894-5.642-12.52-5.642-22.92 0-9.92 2.344-17.467 7.038-22.614 4.692-5.16 11.146-7.746 19.365-7.746 2.869 0 5.136.16 6.805.466 1.667.32 3.468.814 5.41 1.52v-24.2h9.304v61.414zM721.832 51.027h9.305v58.16h-9.305v-58.16zm-1.977-17.68c0-1.787.6-3.32 1.802-4.6 1.203-1.28 2.734-1.92 4.595-1.92 1.86 0 3.448.64 4.769 1.92 1.318 1.28 1.976 2.814 1.976 4.6 0 1.787-.658 3.253-1.976 4.413-1.321 1.174-2.909 1.747-4.769 1.747-1.861 0-3.392-.573-4.595-1.747-1.202-1.16-1.802-2.626-1.802-4.413zM757.421 80.107c0 2.947.292 5.773.874 8.493.581 2.707 1.492 5.08 2.733 7.094a14.694 14.694 0 004.887 4.88c2.014 1.24 4.457 1.866 7.326 1.866 10.546.08 15.819-7.373 15.819-22.333 0-3.027-.292-5.894-.872-8.614-.581-2.706-1.495-5.08-2.735-7.093a14.203 14.203 0 00-4.884-4.826c-2.017-1.2-4.46-1.8-7.328-1.8-10.546-.08-15.82 7.373-15.82 22.333zm-9.653 0c0-9.853 2.191-17.387 6.572-22.627 4.38-5.226 10.681-7.853 18.901-7.853 4.343 0 8.122.72 11.34 2.16 3.218 1.427 5.875 3.48 7.968 6.16 2.094 2.68 3.644 5.893 4.652 9.653 1.007 3.76 1.512 7.934 1.512 12.507 0 9.84-2.19 17.387-6.572 22.627-4.381 5.226-10.681 7.84-18.9 7.84-4.342 0-8.124-.707-11.34-2.147-3.218-1.44-5.874-3.493-7.969-6.16-2.093-2.68-3.645-5.893-4.651-9.653-1.01-3.76-1.513-7.934-1.513-12.507z" fill="#fff"/><path d="M141.356 19.48L72.391.4 3.425 19.48l68.966 19.094 68.965-19.093zM68.627 50.173v18.134L.619 48.373V30.24l68.008 19.933zM68.627 86.947v18.106L.619 85.133v-18.12l68.008 19.933z" fill="#FAD508"/><path d="M94.441 62.946v18.64L127.152 72l17.009-4.987v54.894l-17.009 4.986-32.71 9.587-18.289 5.346-3.764 1.107-3.762-1.107L.619 121.907v-18.121l68.008 19.934 3.762 1.093 3.764-1.093 18.288-5.374 32.711-9.586V90.12l-32.71 9.587-18.289 5.346v-54.88l18.288-5.36 32.711-9.587 17.009-4.986v18.133l-17.009 4.987-32.71 9.586z" fill="#FAD508"/></svg>
