<?xml version="1.0" encoding="UTF-8" standalone="no"?>
<!DOCTYPE svg PUBLIC "-//W3C//DTD SVG 1.1//EN" "http://www.w3.org/Graphics/SVG/1.1/DTD/svg11.dtd">
<svg width="100%" height="100%" viewBox="0 0 800 800" version="1.1" xmlns="http://www.w3.org/2000/svg" xmlns:xlink="http://www.w3.org/1999/xlink" xml:space="preserve" xmlns:serif="http://www.serif.com/" style="fill-rule:evenodd;clip-rule:evenodd;stroke-linejoin:round;stroke-miterlimit:2;">
    <g id="Layer_2">
        <g id="Layer_1-2">
            <path d="M107.686,385.926C110.973,377.318 114.103,369.753 116.816,362.031C127.251,332.318 150.729,319.692 179.424,314.736C188.137,313.223 197.294,314.162 206.267,314.057L222.911,314.057C223.563,302.475 224.763,292.249 224.554,282.023C224.241,267.649 230.032,256.406 238.823,245.502C278.345,196.302 330.883,172.694 392.344,169.016C423.413,167.163 452.552,177.807 479.395,193.85C504.595,208.928 522.229,230.58 534.699,256.823C536.577,260.788 538.872,264.649 541.585,269.554C569.681,263.788 596.576,264.336 619.845,284.162C641.624,302.184 656.015,327.613 660.254,355.561L676.375,355.561C691.245,355.718 706.062,354.987 720.723,359.057C742.609,365.057 760.009,376.431 772.139,395.813C789.539,423.543 800.835,453.047 799.922,486.412C799.113,516.986 786.878,540.777 760.792,557.89C740.849,571.146 718.422,580.216 694.871,584.55C674.434,588.064 653.821,590.459 633.124,591.724C624.164,591.904 615.222,590.869 606.541,588.646C594.176,586.037 583.063,588.646 571.689,593.524C551.916,602.08 532.22,610.898 512.003,618.28C499.452,622.896 486.437,626.132 473.186,627.932C444.355,632.04 415.092,632.119 386.239,628.167C359.918,624.306 336.857,611.889 314.997,597.228C310.692,594.333 306.336,591.515 301.223,588.098C293.579,592.481 286.145,597.228 278.293,601.141C270.936,604.793 263.241,607.715 255.571,610.637C240.166,616.427 223.916,619.653 207.467,620.185C182.815,621.176 158.32,622.141 133.981,615.854C74.53,600.567 31.069,566.081 7.017,509.29C-3.261,485.056 -1.513,459.569 7.487,434.917C9.676,429.381 12.919,424.322 17.035,420.022C37.252,398.37 61.825,385.639 92.164,385.926L107.686,385.926ZM302.945,553.168C317.814,570.359 336.857,580.559 357.257,587.863C387.439,598.585 418.874,599.446 450.282,596.315C477.099,593.707 503.525,588.489 527.342,574.611C535.716,569.733 544.481,565.481 552.855,560.603C559.293,556.685 567.044,555.519 574.35,557.368C614.889,566.681 654.749,560.342 694.062,550.611C712.01,546.151 730.166,540.959 745.688,529.742C758.235,520.638 768.435,509.499 771.174,494.186C774.592,475.038 776.079,455.578 765.331,437.526C762.411,432.305 759.95,426.841 757.974,421.195C751.296,403.587 737.366,394.196 720.853,387.935C713.828,385.386 706.539,383.636 699.123,382.718C680.471,380.109 661.845,379.483 643.976,387.178C638.341,389.604 633.75,387.778 630.019,383.396C626.289,379.013 625.376,374.005 630.019,369.492C634.663,364.979 633.984,360.1 633.463,354.883C630.854,329.188 617.811,310.327 595.715,297.492C589.089,293.632 582.541,291.023 574.585,292.066C567.255,293.032 559.455,291.701 552.437,293.527C544.794,295.536 537.777,300.023 530.942,303.231C522.099,300.466 518.473,294.91 517.377,286.588C516.464,279.336 515.681,271.406 512.16,265.171C496.899,237.545 475.377,217.119 444.752,206.215C418.66,196.742 390.311,195.341 363.413,202.198C325.356,211.037 291.133,231.886 265.823,261.649C257.769,270.612 252.516,281.743 250.719,293.658C249.336,304.092 248.867,314.527 247.641,324.962C246.049,338.344 239.815,343.222 226.771,342.231C217.119,341.527 207.311,339.622 197.763,340.588C162.52,343.848 144.572,358.353 137.059,389.944C136.199,393.544 135.781,397.274 134.972,400.9C133.736,408.152 129.488,414.552 123.286,418.508C118.668,417.517 112.851,416.395 107.268,415.065C78.73,408.439 40.278,429.152 30.73,456.465C29.79,459.297 29.134,462.215 28.774,465.178C24.613,489.883 32.356,515.156 49.643,533.29C74.086,560.316 104.66,575.759 139.877,583.35C165.963,589.063 191.815,586.768 217.902,584.159C239.137,582.046 258.91,576.463 276.545,564.15C284.372,558.489 293.412,554.729 302.945,553.168Z" style="fill:white;fill-rule:nonzero;stroke:white;stroke-width:1px;"/>
            <path d="M302.945,553.168C293.402,554.725 284.353,558.485 276.519,564.15C258.884,576.463 239.11,582.046 217.876,584.159C191.789,586.768 165.885,589.063 139.851,583.35C104.634,575.524 74.06,560.316 49.434,533.159C32.148,515.025 24.404,489.752 28.565,465.047C28.926,462.085 29.581,459.166 30.521,456.334C40.069,429.021 78.521,408.309 107.06,414.935C112.747,416.265 118.46,417.387 123.077,418.378C129.279,414.422 133.527,408.021 134.764,400.77C135.572,397.144 135.99,393.413 136.851,389.813C144.364,358.222 162.311,343.718 197.554,340.457C207.102,339.57 216.911,341.396 226.563,342.101C239.789,343.066 245.919,338.214 247.432,324.831C248.658,314.397 249.128,303.962 250.51,293.527C252.308,281.612 257.56,270.481 265.615,261.519C290.929,231.678 325.194,210.771 363.309,201.911C390.207,195.054 418.556,196.455 444.647,205.928C475.273,216.832 496.821,237.232 512.055,264.884C515.473,271.119 516.255,279.049 517.273,286.301C518.368,294.623 521.994,300.179 530.838,302.945C537.672,299.736 544.69,295.249 552.333,293.24C559.35,291.414 567.15,292.745 574.481,291.779C582.437,290.736 588.985,293.345 595.611,297.205C617.811,310.118 630.75,328.979 633.358,354.596C633.88,359.813 634.219,365.031 629.915,369.205C625.611,373.379 626.028,378.544 629.915,383.109C633.802,387.674 638.237,389.318 643.871,386.891C661.741,379.065 680.393,379.926 699.018,382.431C706.426,383.351 713.706,385.101 720.723,387.648C737.235,393.909 751.192,403.3 757.844,420.856C759.819,426.502 762.281,431.966 765.2,437.187C775.948,455.239 774.461,474.699 771.044,493.847C768.305,509.16 758,520.299 745.557,529.403C729.905,540.672 711.879,545.864 693.932,550.272C654.619,560.003 614.759,566.342 574.22,557.029C566.914,555.18 559.163,556.346 552.724,560.263C544.351,565.142 535.585,569.394 527.212,574.272C503.395,588.176 476.969,593.315 450.152,595.976C418.848,599.107 387.309,598.246 357.127,587.524C336.805,580.559 317.814,570.359 302.945,553.168Z" style="fill:none;fill-rule:nonzero;stroke:white;stroke-width:1px;"/>
        </g>
    </g>
</svg>
