<?xml version="1.0" encoding="UTF-8" standalone="no"?>
<!DOCTYPE svg PUBLIC "-//W3C//DTD SVG 1.1//EN" "http://www.w3.org/Graphics/SVG/1.1/DTD/svg11.dtd">
<svg width="100%" height="100%" viewBox="0 0 732 680" version="1.1" xmlns="http://www.w3.org/2000/svg" xmlns:xlink="http://www.w3.org/1999/xlink" xml:space="preserve" xmlns:serif="http://www.serif.com/" style="fill-rule:evenodd;clip-rule:evenodd;stroke-linejoin:round;stroke-miterlimit:2;">
    <g transform="matrix(1,0,0,1,-36.6719,-53.9062)">
        <path d="M369.336,53.906L340.383,57.666L348.289,119.239C334.048,122.322 319.82,126.516 305.664,131.836L290.82,69.092L262.402,75.827L278.417,143.553C265.225,149.967 252.128,157.413 239.209,165.966L212.209,98.972L185.156,109.859L214.891,183.641C207.05,189.895 199.644,196.383 192.625,203.122L139.797,140.039L117.383,158.789L172.414,224.512C165.109,232.989 158.336,241.734 152.148,250.731L83.547,208.594L68.263,233.497L136.816,275.537C131.027,285.997 125.938,296.722 121.484,307.616L47.219,287.6L39.648,315.819L111.719,335.206C106.109,353.85 102.297,372.863 100.244,391.995L38.281,388.48L36.672,417.68L98.484,421.145C98.203,439.589 99.506,458.002 102.344,476.13L49.023,485.938L54.297,514.648L108.156,504.736C112.664,522.742 118.687,540.333 126.219,557.228L85.109,575.931L97.219,602.494L139.406,583.302C148.719,599.767 159.57,615.386 171.875,629.884L139.797,656.155L158.302,678.761L191.895,651.222C205.809,664.65 221.152,676.775 237.842,687.356L221.141,712.5L245.459,728.663L263.33,701.756C280.705,710.441 299.289,717.538 318.995,722.803L324.563,695.116C308.445,690.788 293.227,685.131 278.953,678.222L290.625,660.644L266.308,644.483L253.37,663.963C239.12,654.889 226.017,644.5 214.063,633.056L235.791,615.233L217.284,592.673L194.092,611.669C183.523,599.028 174.127,585.488 165.967,571.187L201.123,555.172L189.014,528.609L152.78,545.114C146.228,530.383 140.873,515.102 136.814,499.458L187.303,490.134L182.03,461.423L130.905,470.845C128.427,454.973 127.238,438.883 127.389,422.752L189.939,426.267L191.6,397.116L129.147,393.6C130.287,383.381 131.967,373.178 134.225,363.084C140.828,363.978 148.538,364.922 157.762,365.964C180.147,368.489 209.067,371.348 237.692,374.067C284.536,378.517 315.252,381.15 330.466,382.466L278.805,495.505L269.773,515.28L271.872,515.38L366.505,570.313L381.202,545.069L334.42,517.92L415.33,521.189L416.502,491.991L339.403,488.866L391.892,468.209L381.198,441.014L325.875,462.792L365.625,375.828L374.219,356.984L353.563,355.225C353.563,355.225 297.5,350.441 240.43,345.022C211.894,342.309 183.092,339.452 161.034,336.963C153.819,336.15 147.722,335.378 142.237,334.666C157.597,289.327 185.166,246.806 226.319,212.009L259.033,293.259L286.134,282.322L250.392,193.65C250.855,193.334 251.295,192.994 251.759,192.675C262.869,185.113 274.069,178.463 285.306,172.656L314.797,297.509L343.213,290.822L312.4,160.353C325.575,155.156 338.759,151.056 351.953,148.047L370.359,291.406L399.316,287.695L380.761,143.117C394.767,141.536 408.723,141.169 422.558,141.845L427.245,292.142L456.445,291.213L455.908,273.634L509.377,335.009L451.127,361.672L463.283,388.234L513.772,365.138L489.259,415.673L515.53,428.47L552.1,353.125L556.35,344.433L550,337.158L485.352,262.989L564.305,188.234C601.461,211.681 635.286,243.203 663.575,280.958C626.366,290.552 594.791,318.697 584.375,364.892L657.813,525.93L684.18,522.17L642.089,414.944L669.288,404.25L713.916,517.922L768.311,510.109L755.173,293.506C736.798,283.272 716.678,277.894 696.873,277.295C689.709,266.905 682.17,256.905 674.264,247.311L703.27,218.114L682.567,197.558L654.88,225.389C646.952,217.022 638.708,209.077 630.223,201.514L658.544,158.836L634.177,142.723L607.614,182.811C598.166,175.584 588.427,168.863 578.464,162.645L594.964,112.889L567.23,103.709L552.583,147.897C541.417,142.172 529.989,137.08 518.355,132.663L523.286,80.028L494.184,77.294L489.887,123.388C477.103,119.872 464.111,117.206 450.973,115.378L449.508,68.209L420.313,69.094L421.68,112.744C419.08,112.644 416.477,112.58 413.867,112.548C412.008,112.528 410.164,112.537 408.3,112.548C397.936,112.627 387.534,113.259 377.1,114.455L369.334,53.908L369.336,53.906ZM451.905,144.875C463.775,146.784 475.514,149.487 487.108,152.93L480.173,227.002L480.809,227.052L455.222,251.27L451.902,144.875L451.905,144.875ZM515.525,162.938C523.036,166.027 530.47,169.431 537.791,173.144L512.303,197.266L515.527,162.938L515.525,162.938ZM689.844,305.469C691.072,305.433 692.3,305.478 693.555,305.567C713.636,306.973 728.461,324.072 727.052,344.141C725.642,364.203 708.558,379.047 688.477,377.638C668.395,376.228 653.57,359.125 654.98,339.063C656.3,320.255 671.417,306.013 689.844,305.469ZM512.891,686.817C504.628,689.333 496.503,691.539 488.477,693.505L494.727,722.07C503.523,719.952 512.417,717.539 521.436,714.795L512.889,686.814L512.891,686.817ZM459.912,699.463C448.741,701.38 437.811,702.744 427.147,703.613L427.734,732.569C440.242,731.694 453.05,730.2 466.114,727.978L459.911,699.463L459.912,699.463ZM353.125,701.172L347.509,728.953C363.859,731.703 380.878,733.25 398.534,733.447L397.948,704.784C382.386,704.691 367.456,703.425 353.125,701.172Z" style="fill:white;fill-rule:nonzero;"/>
    </g>
</svg>
