<?xml version="1.0" encoding="iso-8859-1"?>
<!-- Uploaded to: SVG Repo, www.svgrepo.com, Generator: SVG Repo Mixer Tools -->
<svg fill="#000000" height="800px" width="800px" version="1.1" id="Layer_1" xmlns="http://www.w3.org/2000/svg" xmlns:xlink="http://www.w3.org/1999/xlink" 
	 viewBox="0 0 512 512" xml:space="preserve">
<g transform="translate(0 -1)">
	<g>
		<g>
			<path d="M204.8,444.733h238.933V274.067H204.8V444.733z M324.267,299.667c5.12,0,8.533,3.413,8.533,8.533
				s-3.413,8.533-8.533,8.533s-8.533-3.413-8.533-8.533S319.147,299.667,324.267,299.667z M298.667,402.067h17.067v-51.2H307.2
				c-5.12,0-8.533-3.413-8.533-8.533s3.413-8.533,8.533-8.533h17.067c5.12,0,8.533,3.413,8.533,8.533v59.733h17.067
				c5.12,0,8.533,3.413,8.533,8.533c0,5.12-3.413,8.533-8.533,8.533h-51.2c-5.12,0-8.533-3.413-8.533-8.533
				C290.133,405.48,293.547,402.067,298.667,402.067z"/>
			<path d="M486.4,111.933c14.507,0,25.6-11.093,25.6-25.6s-11.093-25.6-25.6-25.6H51.2V43.667c0-14.507-11.093-25.6-25.6-25.6
				C11.093,18.067,0,29.16,0,43.667V282.6c0,14.507,11.093,25.6,25.6,25.6c14.507,0,25.6-11.093,25.6-25.6v-17.067
				c0-78.507,59.733-144.213,136.533-152.747v110.08h-25.6c-5.12,0-8.533,3.413-8.533,8.533v256c0,5.12,3.413,8.533,8.533,8.533
				H486.4c5.12,0,8.533-3.413,8.533-8.533v-256c0-5.12-3.413-8.533-8.533-8.533h-25.6V111.933H486.4z M51.2,191.293v-79.36h79.36
				C96.427,129,68.267,157.16,51.2,191.293z M204.8,111.933h238.933v110.933H204.8V111.933z M460.8,453.267
				c0,5.12-3.413,8.533-8.533,8.533h-256c-5.12,0-8.533-3.413-8.533-8.533V265.533c0-5.12,3.413-8.533,8.533-8.533h256
				c5.12,0,8.533,3.413,8.533,8.533V453.267z"/>
		</g>
	</g>
</g>
</svg>