<?xml version="1.0" encoding="iso-8859-1"?>
<!-- Uploaded to: SVG Repo, www.svgrepo.com, Generator: SVG Repo Mixer Tools -->
<svg fill="#000000" height="800px" width="800px" version="1.1" id="Layer_1" xmlns="http://www.w3.org/2000/svg" xmlns:xlink="http://www.w3.org/1999/xlink" 
	 viewBox="0 0 512 512" xml:space="preserve">
<g>
	<g>
		<g>
			<path d="M136.533,234.667c9.591,0,19.166-1.664,28.45-4.949c3.405-1.212,5.683-4.429,5.683-8.047c0-3.61-2.278-6.835-5.683-8.047
				c-27.221-9.634-45.517-35.473-45.517-64.29s18.295-54.656,45.517-64.29c3.405-1.212,5.683-4.437,5.683-8.047
				c0-3.618-2.278-6.835-5.683-8.047C155.699,65.664,146.125,64,136.533,64C89.481,64,51.2,102.281,51.2,149.333
				S89.481,234.667,136.533,234.667z"/>
			<path d="M196.267,123.733c14.114,0,25.6,11.486,25.6,25.6c0,4.71,3.814,8.533,8.533,8.533s8.533-3.823,8.533-8.533
				c0-14.114,11.486-25.6,25.6-25.6c4.719,0,8.533-3.823,8.533-8.533c0-4.71-3.814-8.533-8.533-8.533
				c-14.114,0-25.6-11.486-25.6-25.6c0-4.71-3.814-8.533-8.533-8.533s-8.533,3.823-8.533,8.533c0,14.114-11.486,25.6-25.6,25.6
				c-4.719,0-8.533,3.823-8.533,8.533C187.733,119.91,191.548,123.733,196.267,123.733z"/>
			<path d="M34.133,268.8h8.533v8.533c0,4.71,3.814,8.533,8.533,8.533s8.533-3.823,8.533-8.533V268.8h8.533
				c4.719,0,8.533-3.823,8.533-8.533c0-4.71-3.814-8.533-8.533-8.533h-8.533V243.2c0-4.71-3.814-8.533-8.533-8.533
				s-8.533,3.823-8.533,8.533v8.533h-8.533c-4.719,0-8.533,3.823-8.533,8.533C25.6,264.977,29.414,268.8,34.133,268.8z"/>
			<circle cx="34.133" cy="72.533" r="8.533"/>
			<circle cx="170.667" cy="251.733" r="8.533"/>
			<path d="M503.467,430.933c-27.725,0-94.063-48.009-102.69-54.912c-45.193-50.611-116.292-69.606-181.333-48.35
				c-6.997,2.287-13.5,4.326-18.577,5.897c-0.811-2.705-2.108-5.231-3.874-7.543c-9.856-12.919-31.172-14.413-34.022-14.558
				c-78.174,0-157.363,84.471-160.691,88.064C0.811,401.109,0,403.183,0,405.333v34.133C0,444.177,3.814,448,8.533,448h494.933
				c4.719,0,8.533-3.823,8.533-8.533S508.186,430.933,503.467,430.933z"/>
		</g>
	</g>
</g>
</svg>